<svg width="147" height="48" viewBox="0 0 147 48" fill="none" xmlns="http://www.w3.org/2000/svg">
<rect width="147" height="48" rx="8" fill="#DE1717"/>
<path d="M26.208 15.584C27.28 15.184 28.248 15.008 29.112 15.056C29.992 15.104 30.776 15.328 31.464 15.728C32.152 16.112 32.736 16.632 33.216 17.288C33.712 17.944 34.112 18.68 34.416 19.496C34.656 20.104 34.84 20.744 34.968 21.416C35.096 22.088 35.168 22.76 35.184 23.432C35.216 24.088 35.192 24.736 35.112 25.376C35.048 26.016 34.936 26.608 34.776 27.152C34.68 27.52 34.568 27.856 34.44 28.16C34.312 28.464 34.16 28.768 33.984 29.072C33.584 29.76 33.064 30.32 32.424 30.752C31.8 31.184 31.112 31.488 30.36 31.664C29.848 31.792 29.32 31.856 28.776 31.856C28.232 31.84 27.696 31.768 27.168 31.64C26.64 31.496 26.128 31.296 25.632 31.04C25.152 30.768 24.712 30.432 24.312 30.032C23.816 29.552 23.408 29 23.088 28.376C22.768 27.736 22.52 27.072 22.344 26.384C22.168 25.68 22.056 24.976 22.008 24.272C21.96 23.568 21.96 22.896 22.008 22.256C22.056 21.664 22.168 21.032 22.344 20.36C22.536 19.688 22.808 19.04 23.16 18.416C23.512 17.792 23.936 17.232 24.432 16.736C24.944 16.224 25.536 15.84 26.208 15.584ZM31.824 25.856C32.016 25.104 32.096 24.256 32.064 23.312C32.032 22.368 31.88 21.48 31.608 20.648C31.432 20.136 31.208 19.688 30.936 19.304C30.68 18.904 30.368 18.6 30 18.392C29.648 18.184 29.232 18.08 28.752 18.08C28.272 18.08 27.736 18.224 27.144 18.512C26.792 18.688 26.488 18.928 26.232 19.232C25.992 19.536 25.792 19.88 25.632 20.264C25.488 20.648 25.368 21.048 25.272 21.464C25.192 21.88 25.144 22.28 25.128 22.664C25.096 23.08 25.088 23.52 25.104 23.984C25.12 24.432 25.168 24.888 25.248 25.352C25.344 25.8 25.472 26.232 25.632 26.648C25.792 27.048 26.008 27.408 26.28 27.728C26.696 28.208 27.176 28.544 27.72 28.736C28.28 28.912 28.832 28.936 29.376 28.808C30.256 28.616 30.928 28.032 31.392 27.056C31.584 26.704 31.728 26.304 31.824 25.856ZM50.2035 30.176C50.1875 30.448 50.1475 30.736 50.0835 31.04C50.0355 31.344 49.8835 31.592 49.6275 31.784C49.4355 31.944 49.2195 32.04 48.9795 32.072C48.7395 32.104 48.4995 32.088 48.2595 32.024C48.0355 31.976 47.8195 31.896 47.6115 31.784C47.4035 31.656 47.2355 31.504 47.1075 31.328C46.5635 30.656 46.0595 29.968 45.5955 29.264C45.1475 28.544 44.6915 27.824 44.2275 27.104L42.2115 24.056C41.9395 23.624 41.6515 23.144 41.3475 22.616C41.0435 22.072 40.7315 21.568 40.4115 21.104L40.3395 30.272V30.488C40.3395 30.744 40.2915 31 40.1955 31.256C40.1155 31.496 39.9715 31.704 39.7635 31.88C39.6035 32.008 39.3955 32.096 39.1395 32.144C38.7395 32.224 38.4035 32.2 38.1315 32.072C37.8755 31.944 37.6675 31.768 37.5075 31.544C37.3635 31.32 37.2595 31.064 37.1955 30.776C37.1475 30.472 37.1395 30.176 37.1715 29.888V29.48L37.2195 27.608L37.2435 24.128C37.2595 23.616 37.2675 23.096 37.2675 22.568C37.2675 22.024 37.2675 21.472 37.2675 20.912C37.2515 20.224 37.2515 19.496 37.2675 18.728C37.2995 17.96 37.3315 17.24 37.3635 16.568C37.3955 16.2 37.4835 15.888 37.6275 15.632C37.6915 15.408 37.8595 15.216 38.1315 15.056C38.3075 14.944 38.5315 14.872 38.8035 14.84C39.0915 14.808 39.3395 14.816 39.5475 14.864C39.6275 14.896 39.7075 14.936 39.7875 14.984C39.8675 15.016 39.9475 15.056 40.0275 15.104C40.1075 15.168 40.1795 15.232 40.2435 15.296C40.3235 15.36 40.3955 15.432 40.4595 15.512C40.5395 15.592 40.6115 15.68 40.6755 15.776C40.7395 15.856 40.8035 15.936 40.8675 16.016C40.9155 16.112 40.9635 16.2 41.0115 16.28C41.0595 16.36 41.1155 16.44 41.1795 16.52L41.4435 16.904L46.9875 25.64V24.056C46.9875 23.544 46.9795 23.024 46.9635 22.496C46.9635 21.952 46.9555 21.392 46.9395 20.816C46.9395 20.144 46.9395 19.424 46.9395 18.656C46.9555 17.888 46.9795 17.168 47.0115 16.496C47.0115 16.224 47.0915 15.912 47.2515 15.56C47.3315 15.352 47.4675 15.184 47.6595 15.056C47.8515 14.928 48.0675 14.84 48.3075 14.792C48.5475 14.744 48.7875 14.744 49.0275 14.792C49.2675 14.84 49.4755 14.936 49.6515 15.08C49.6995 15.128 49.7475 15.184 49.7955 15.248C49.8435 15.312 49.8835 15.384 49.9155 15.464C49.9955 15.672 50.0435 15.856 50.0595 16.016C50.1075 16.24 50.1315 16.44 50.1315 16.616C50.1315 18.616 50.1315 20.656 50.1315 22.736C50.1475 24.816 50.1635 26.856 50.1795 28.856C50.1795 29.08 50.1875 29.304 50.2035 29.528C50.2195 29.736 50.2195 29.952 50.2035 30.176Z" fill="#111211"/>
<path d="M64.5795 25.016C64.6595 25.24 64.7155 25.496 64.7475 25.784C64.7955 26.056 64.8195 26.336 64.8195 26.624C64.8195 26.912 64.7955 27.2 64.7475 27.488C64.7155 27.76 64.6675 28 64.6035 28.208C64.3475 29.104 63.8355 29.856 63.0675 30.464C62.2995 31.056 61.4195 31.488 60.4275 31.76C59.4515 32.032 58.4355 32.128 57.3795 32.048C56.3395 31.968 55.4115 31.704 54.5955 31.256C54.0835 30.968 53.6435 30.616 53.2755 30.2C52.9075 29.784 52.5955 29.32 52.3395 28.808C52.2435 28.632 52.1795 28.432 52.1475 28.208C52.1315 27.968 52.1555 27.744 52.2195 27.536C52.2835 27.312 52.3875 27.12 52.5315 26.96C52.6755 26.784 52.8755 26.664 53.1315 26.6C53.2915 26.568 53.4675 26.552 53.6595 26.552C53.8675 26.552 54.0675 26.584 54.2595 26.648C54.4515 26.696 54.6275 26.784 54.7875 26.912C54.9475 27.024 55.0755 27.184 55.1715 27.392C55.3475 27.728 55.5955 28.04 55.9155 28.328C56.2515 28.6 56.6035 28.824 56.9715 29C57.4995 29.176 58.0275 29.248 58.5555 29.216C59.0995 29.184 59.5875 29.064 60.0195 28.856C60.4675 28.648 60.8275 28.368 61.0995 28.016C61.3715 27.648 61.5075 27.232 61.5075 26.768C61.5075 26.384 61.4515 26.072 61.3395 25.832C61.2275 25.576 61.0675 25.368 60.8595 25.208C60.6675 25.032 60.4275 24.888 60.1395 24.776C59.8675 24.664 59.5635 24.568 59.2275 24.488C58.8435 24.408 58.4515 24.352 58.0515 24.32C57.6675 24.288 57.2755 24.248 56.8755 24.2C56.4755 24.152 56.0835 24.088 55.6995 24.008C55.3155 23.928 54.9395 23.808 54.5715 23.648C53.8355 23.344 53.2755 22.88 52.8915 22.256C52.5075 21.632 52.2755 20.96 52.1955 20.24C52.1315 19.52 52.2195 18.808 52.4595 18.104C52.6995 17.384 53.0835 16.768 53.6115 16.256C54.1235 15.792 54.7315 15.464 55.4355 15.272C56.1555 15.064 56.9475 14.944 57.8115 14.912C58.2915 14.896 58.7715 14.912 59.2515 14.96C59.7475 15.008 60.2195 15.088 60.6675 15.2C61.1315 15.312 61.5555 15.456 61.9395 15.632C62.3395 15.808 62.6835 16.016 62.9715 16.256C63.1795 16.416 63.3875 16.632 63.5955 16.904C63.8035 17.16 63.9635 17.44 64.0755 17.744C64.1875 18.032 64.2195 18.312 64.1715 18.584C64.1395 18.856 63.9715 19.088 63.6675 19.28C63.4115 19.44 63.1635 19.512 62.9235 19.496C62.6995 19.464 62.4835 19.392 62.2755 19.28C62.0675 19.152 61.8675 19.008 61.6755 18.848C61.4835 18.688 61.3075 18.544 61.1475 18.416C60.7155 18.096 60.1795 17.88 59.5395 17.768C58.8995 17.656 58.2995 17.632 57.7395 17.696C57.3875 17.744 57.0595 17.824 56.7555 17.936C56.4515 18.048 56.1875 18.2 55.9635 18.392C55.7555 18.584 55.5875 18.824 55.4595 19.112C55.3475 19.384 55.3075 19.696 55.3395 20.048C55.3555 20.304 55.4275 20.52 55.5555 20.696C55.6995 20.872 55.8675 21.016 56.0595 21.128C56.2675 21.24 56.4915 21.328 56.7315 21.392C56.9715 21.456 57.2115 21.504 57.4515 21.536C58.1715 21.632 58.8915 21.704 59.6115 21.752C60.3315 21.8 61.0355 21.96 61.7235 22.232C62.4275 22.504 63.0275 22.872 63.5235 23.336C64.0195 23.8 64.3715 24.36 64.5795 25.016ZM81.5571 30.368C81.5731 30.464 81.5811 30.56 81.5811 30.656C81.5971 30.736 81.6051 30.832 81.6051 30.944C81.6051 31.136 81.5491 31.312 81.4371 31.472C81.3891 31.552 81.3251 31.632 81.2451 31.712C81.1651 31.776 81.0691 31.832 80.9571 31.88C80.5571 32.104 80.1331 32.184 79.6851 32.12C79.4611 32.056 79.2611 31.952 79.0851 31.808C79.0531 31.776 79.0291 31.76 79.0131 31.76C78.9971 31.744 78.9811 31.72 78.9651 31.688C78.9491 31.672 78.9331 31.656 78.9171 31.64C78.9011 31.608 78.8771 31.584 78.8451 31.568C78.7651 31.488 78.7011 31.416 78.6531 31.352C78.6051 31.272 78.5571 31.192 78.5091 31.112C78.4771 31.032 78.4371 30.96 78.3891 30.896C78.3571 30.816 78.3171 30.736 78.2691 30.656C78.2371 30.592 78.2051 30.536 78.1731 30.488C78.1411 30.424 78.1171 30.36 78.1011 30.296C78.0371 30.152 77.9971 30.024 77.9811 29.912L77.4771 28.736C76.3731 28.736 75.2691 28.744 74.1651 28.76C73.0771 28.76 71.9811 28.752 70.8771 28.736L70.3731 29.912C70.3411 29.976 70.3171 30.04 70.3011 30.104C70.3011 30.168 70.2851 30.232 70.2531 30.296C70.2211 30.36 70.1891 30.424 70.1571 30.488C70.1411 30.536 70.1171 30.592 70.0851 30.656C70.0371 30.736 69.9891 30.816 69.9411 30.896C69.9091 30.96 69.8691 31.032 69.8211 31.112C69.7891 31.192 69.7491 31.272 69.7011 31.352C69.6531 31.416 69.5891 31.488 69.5091 31.568C69.4771 31.584 69.4531 31.608 69.4371 31.64C69.4211 31.656 69.4051 31.672 69.3891 31.688C69.3731 31.72 69.3571 31.744 69.3411 31.76C69.3251 31.76 69.3011 31.776 69.2691 31.808C69.0931 31.952 68.8931 32.056 68.6691 32.12C68.2211 32.184 67.7971 32.104 67.3971 31.88C67.2851 31.832 67.1891 31.776 67.1091 31.712C67.0291 31.632 66.9651 31.552 66.9171 31.472C66.8051 31.312 66.7491 31.136 66.7491 30.944C66.7491 30.832 66.7491 30.736 66.7491 30.656C66.7651 30.56 66.7811 30.464 66.7971 30.368C66.8291 30.224 66.8691 30.08 66.9171 29.936C66.9651 29.792 66.9891 29.72 66.9891 29.72L71.9811 17.432L72.1251 17.048C72.1571 16.952 72.1971 16.864 72.2451 16.784C72.2931 16.704 72.3331 16.608 72.3651 16.496C72.4451 16.288 72.5331 16.104 72.6291 15.944C72.6771 15.848 72.7331 15.76 72.7971 15.68C72.8611 15.6 72.9251 15.52 72.9891 15.44C73.0851 15.312 73.2211 15.208 73.3971 15.128C73.6211 15.048 73.8771 15.008 74.1651 15.008C74.4691 15.008 74.7331 15.048 74.9571 15.128C75.1331 15.208 75.2691 15.312 75.3651 15.44C75.4771 15.584 75.5971 15.752 75.7251 15.944C75.8211 16.104 75.9091 16.288 75.9891 16.496C76.0211 16.608 76.0611 16.704 76.1091 16.784C76.1571 16.864 76.1971 16.952 76.2291 17.048L76.3731 17.432L81.3651 29.72C81.3651 29.72 81.3891 29.792 81.4371 29.936C81.4851 30.08 81.5251 30.224 81.5571 30.368ZM75.8691 24.488C75.6611 24.024 75.4451 23.544 75.2211 23.048C75.0131 22.552 74.7891 22.048 74.5491 21.536C74.4851 21.392 74.4211 21.248 74.3571 21.104C74.2931 20.944 74.2291 20.792 74.1651 20.648C74.1171 20.792 74.0611 20.944 73.9971 21.104C73.9331 21.248 73.8691 21.392 73.8051 21.536C73.5651 22.048 73.3331 22.552 73.1091 23.048C72.9011 23.544 72.6931 24.024 72.4851 24.488L72.0531 25.544H76.3011L75.8691 24.488ZM94.7383 15.728C94.8823 15.92 94.9703 16.144 95.0023 16.4C95.0023 16.496 94.9943 16.592 94.9783 16.688C94.9783 16.768 94.9703 16.848 94.9543 16.928C94.9383 17.104 94.8343 17.272 94.6423 17.432C94.5303 17.512 94.3863 17.592 94.2103 17.672C94.1143 17.704 94.0103 17.728 93.8983 17.744C93.8023 17.744 93.6903 17.752 93.5623 17.768C93.4663 17.8 93.3623 17.816 93.2503 17.816C93.1383 17.816 93.0263 17.816 92.9143 17.816H91.8343L86.8183 17.84V17.912L86.7943 21.824C86.9223 21.824 87.0583 21.824 87.2023 21.824C87.3623 21.824 87.5543 21.816 87.7783 21.8C88.4183 21.8 88.9863 21.8 89.4823 21.8C89.9943 21.8 90.5543 21.808 91.1623 21.824H91.3063C91.4823 21.824 91.6583 21.832 91.8343 21.848C92.0263 21.848 92.2183 21.848 92.4103 21.848C92.5863 21.864 92.7623 21.888 92.9383 21.92C93.1143 21.936 93.2903 21.976 93.4663 22.04C93.7543 22.136 93.9623 22.288 94.0903 22.496C94.2663 22.704 94.3543 22.92 94.3543 23.144C94.3543 23.24 94.3543 23.336 94.3543 23.432C94.3543 23.512 94.3383 23.6 94.3063 23.696C94.2903 23.824 94.1863 23.984 93.9943 24.176C93.8663 24.288 93.7143 24.36 93.5383 24.392C93.4583 24.424 93.3623 24.456 93.2503 24.488C93.1543 24.504 93.0503 24.52 92.9383 24.536C92.8263 24.552 92.7143 24.568 92.6023 24.584C92.5063 24.584 92.3943 24.584 92.2663 24.584H91.1623L86.7463 24.608L86.6743 30.176V30.368C86.6743 30.448 86.6663 30.528 86.6503 30.608C86.6503 30.672 86.6423 30.744 86.6263 30.824C86.5943 30.904 86.5623 30.992 86.5303 31.088C86.5143 31.168 86.4903 31.248 86.4583 31.328C86.3463 31.552 86.2423 31.704 86.1463 31.784C85.9703 31.912 85.7543 32 85.4983 32.048C85.0663 32.144 84.6583 32.096 84.2743 31.904C84.1943 31.856 84.1143 31.8 84.0343 31.736C83.9703 31.656 83.9143 31.56 83.8663 31.448C83.8343 31.384 83.8183 31.336 83.8183 31.304L83.7463 31.16C83.6983 31.08 83.6663 31 83.6503 30.92C83.6343 30.824 83.6183 30.736 83.6023 30.656C83.6023 30.576 83.5943 30.496 83.5783 30.416C83.5783 30.336 83.5703 30.256 83.5543 30.176C83.5383 30.048 83.5383 29.92 83.5543 29.792V29.408L83.5783 27.536L83.6023 24.08C83.6183 23.568 83.6263 23.048 83.6263 22.52C83.6263 21.992 83.6263 21.448 83.6263 20.888C83.6103 20.312 83.6023 19.8 83.6023 19.352C83.6183 18.904 83.6423 18.416 83.6743 17.888V17.768C83.6903 17.592 83.6983 17.432 83.6983 17.288C83.6983 17.128 83.7143 16.968 83.7463 16.808C83.7783 16.456 83.8583 16.144 83.9863 15.872C84.0983 15.6 84.2583 15.408 84.4663 15.296C84.7063 15.152 84.9623 15.08 85.2343 15.08C85.3623 15.08 85.4663 15.088 85.5463 15.104V15.08C85.8343 15.08 86.0663 15.08 86.2423 15.08C86.4183 15.08 86.5863 15.08 86.7463 15.08C86.9063 15.08 87.0823 15.08 87.2743 15.08C87.4663 15.064 87.7223 15.056 88.0423 15.056C89.3223 15.04 90.5863 15.04 91.8343 15.056H91.9543C92.1303 15.072 92.3063 15.08 92.4823 15.08C92.6743 15.08 92.8663 15.088 93.0583 15.104C93.2343 15.104 93.4103 15.128 93.5863 15.176C93.7623 15.208 93.9383 15.256 94.1143 15.32C94.3863 15.4 94.5943 15.536 94.7383 15.728ZM107.793 15.728C107.937 15.92 108.025 16.144 108.057 16.4C108.057 16.496 108.049 16.592 108.033 16.688C108.033 16.768 108.025 16.848 108.009 16.928C107.993 17.104 107.889 17.272 107.697 17.432C107.585 17.512 107.441 17.592 107.265 17.672C107.169 17.704 107.065 17.728 106.953 17.744C106.857 17.744 106.745 17.752 106.617 17.768C106.521 17.8 106.417 17.816 106.305 17.816C106.193 17.816 106.081 17.816 105.969 17.816H104.889L99.873 17.84V17.912L99.849 21.824C99.977 21.824 100.113 21.824 100.257 21.824C100.417 21.824 100.609 21.816 100.833 21.8C101.473 21.8 102.041 21.8 102.537 21.8C103.049 21.8 103.609 21.808 104.217 21.824H104.361C104.537 21.824 104.713 21.832 104.889 21.848C105.081 21.848 105.273 21.848 105.465 21.848C105.641 21.864 105.817 21.888 105.993 21.92C106.169 21.936 106.345 21.976 106.521 22.04C106.809 22.136 107.017 22.288 107.145 22.496C107.321 22.704 107.409 22.92 107.409 23.144C107.409 23.24 107.409 23.336 107.409 23.432C107.409 23.512 107.393 23.6 107.361 23.696C107.345 23.824 107.241 23.984 107.049 24.176C106.921 24.288 106.769 24.36 106.593 24.392C106.513 24.424 106.417 24.456 106.305 24.488C106.209 24.504 106.105 24.52 105.993 24.536C105.881 24.552 105.769 24.568 105.657 24.584C105.561 24.584 105.449 24.584 105.321 24.584H104.217L99.801 24.608L99.729 30.176V30.368C99.729 30.448 99.721 30.528 99.705 30.608C99.705 30.672 99.697 30.744 99.681 30.824C99.649 30.904 99.617 30.992 99.585 31.088C99.569 31.168 99.545 31.248 99.513 31.328C99.401 31.552 99.297 31.704 99.201 31.784C99.025 31.912 98.809 32 98.553 32.048C98.121 32.144 97.713 32.096 97.329 31.904C97.249 31.856 97.169 31.8 97.089 31.736C97.025 31.656 96.969 31.56 96.921 31.448C96.889 31.384 96.873 31.336 96.873 31.304L96.801 31.16C96.753 31.08 96.721 31 96.705 30.92C96.689 30.824 96.673 30.736 96.657 30.656C96.657 30.576 96.649 30.496 96.633 30.416C96.633 30.336 96.625 30.256 96.609 30.176C96.593 30.048 96.593 29.92 96.609 29.792V29.408L96.633 27.536L96.657 24.08C96.673 23.568 96.681 23.048 96.681 22.52C96.681 21.992 96.681 21.448 96.681 20.888C96.665 20.312 96.657 19.8 96.657 19.352C96.673 18.904 96.697 18.416 96.729 17.888V17.768C96.745 17.592 96.753 17.432 96.753 17.288C96.753 17.128 96.769 16.968 96.801 16.808C96.833 16.456 96.913 16.144 97.041 15.872C97.153 15.6 97.313 15.408 97.521 15.296C97.761 15.152 98.017 15.08 98.289 15.08C98.417 15.08 98.521 15.088 98.601 15.104V15.08C98.889 15.08 99.121 15.08 99.297 15.08C99.473 15.08 99.641 15.08 99.801 15.08C99.961 15.08 100.137 15.08 100.329 15.08C100.521 15.064 100.777 15.056 101.097 15.056C102.377 15.04 103.641 15.04 104.889 15.056H105.009C105.185 15.072 105.361 15.08 105.537 15.08C105.729 15.08 105.921 15.088 106.113 15.104C106.289 15.104 106.465 15.128 106.641 15.176C106.817 15.208 106.993 15.256 107.169 15.32C107.441 15.4 107.649 15.536 107.793 15.728ZM112.928 17.888L112.88 21.656H113.84C114.496 21.64 115.08 21.632 115.592 21.632C116.104 21.632 116.672 21.64 117.296 21.656H117.416C117.608 21.656 117.792 21.664 117.968 21.68C118.16 21.68 118.344 21.68 118.52 21.68C118.712 21.696 118.896 21.728 119.072 21.776C119.248 21.808 119.424 21.848 119.6 21.896C119.872 21.992 120.096 22.136 120.272 22.328C120.432 22.536 120.512 22.768 120.512 23.024C120.512 23.104 120.512 23.2 120.512 23.312C120.512 23.408 120.496 23.496 120.464 23.576C120.432 23.752 120.328 23.912 120.152 24.056C120.072 24.168 119.92 24.248 119.696 24.296C119.488 24.36 119.28 24.4 119.072 24.416C118.848 24.464 118.624 24.488 118.4 24.488H117.272L112.832 24.512L112.784 29.216L117.56 29.264H118.688C118.816 29.264 118.936 29.264 119.048 29.264C119.16 29.264 119.264 29.272 119.36 29.288C119.488 29.32 119.6 29.344 119.696 29.36C119.808 29.36 119.912 29.376 120.008 29.408C120.2 29.472 120.36 29.56 120.488 29.672C120.648 29.832 120.752 30 120.8 30.176C120.816 30.256 120.824 30.344 120.824 30.44C120.84 30.52 120.84 30.608 120.824 30.704C120.824 30.96 120.744 31.192 120.584 31.4C120.392 31.624 120.168 31.768 119.912 31.832C119.576 31.976 119.208 32.048 118.808 32.048C118.632 32.064 118.448 32.072 118.256 32.072C118.064 32.072 117.88 32.08 117.704 32.096H117.56C116.312 32.128 115.016 32.128 113.672 32.096C113.352 32.096 113.096 32.088 112.904 32.072C112.712 32.072 112.536 32.072 112.376 32.072C112.232 32.072 112.08 32.072 111.92 32.072C111.76 32.072 111.552 32.072 111.296 32.072C110.928 32.104 110.624 32.04 110.384 31.88C110.208 31.768 110.072 31.616 109.976 31.424C109.928 31.376 109.904 31.328 109.904 31.28C109.888 31.248 109.872 31.224 109.856 31.208C109.84 31.192 109.824 31.168 109.808 31.136C109.776 31.056 109.752 30.976 109.736 30.896C109.72 30.8 109.712 30.712 109.712 30.632C109.696 30.552 109.68 30.472 109.664 30.392C109.664 30.312 109.656 30.232 109.64 30.152V29.768C109.64 29.704 109.64 29.64 109.64 29.576C109.656 29.512 109.664 29.448 109.664 29.384V27.512L109.712 24.056V20.864C109.712 20.288 109.712 19.776 109.712 19.328C109.728 18.88 109.744 18.392 109.76 17.864V17.744C109.776 17.568 109.784 17.408 109.784 17.264C109.8 17.104 109.808 16.944 109.808 16.784C109.824 16.464 109.912 16.152 110.072 15.848C110.136 15.72 110.2 15.608 110.264 15.512C110.344 15.416 110.448 15.336 110.576 15.272C110.816 15.128 111.064 15.056 111.32 15.056C111.448 15.056 111.544 15.064 111.608 15.08V15.056C111.896 15.056 112.128 15.056 112.304 15.056C112.48 15.056 112.648 15.056 112.808 15.056C112.984 15.056 113.168 15.056 113.36 15.056C113.552 15.04 113.816 15.032 114.152 15.032C114.792 15.016 115.4 15.008 115.976 15.008C116.552 15.008 117.144 15.016 117.752 15.032H117.848C118.024 15.048 118.208 15.056 118.4 15.056C118.592 15.056 118.776 15.064 118.952 15.08C119.128 15.08 119.304 15.104 119.48 15.152C119.656 15.184 119.832 15.232 120.008 15.296C120.28 15.376 120.504 15.512 120.68 15.704C120.824 15.928 120.896 16.152 120.896 16.376C120.896 16.472 120.896 16.568 120.896 16.664C120.896 16.744 120.88 16.824 120.848 16.904C120.832 17.064 120.736 17.232 120.56 17.408C120.496 17.44 120.424 17.48 120.344 17.528C120.28 17.576 120.2 17.616 120.104 17.648C120.008 17.68 119.904 17.704 119.792 17.72C119.696 17.72 119.6 17.728 119.504 17.744C119.376 17.776 119.256 17.792 119.144 17.792C119.048 17.792 118.936 17.792 118.808 17.792H117.728L112.928 17.816V17.888Z" fill="white"/>
</svg>
