<svg width="80" height="80" viewBox="0 0 80 80" fill="none" xmlns="http://www.w3.org/2000/svg">
<g clip-path="url(#clip0_6_277)">
<mask id="mask0_6_277" style="mask-type:luminance" maskUnits="userSpaceOnUse" x="0" y="0" width="80" height="80">
<path d="M80 0H0V80H80V0Z" fill="white"/>
</mask>
<g mask="url(#mask0_6_277)">
<path d="M10.7779 12.7443H69.2448C71.511 12.7443 73.3445 14.5776 73.3445 16.8443V27.0109H6.66669V16.8443C6.66669 14.5776 8.50006 12.7443 10.7667 12.7443H10.7779Z" fill="#E0F3E3"/>
<path d="M28.9448 67.2555H68.4669C71.1558 67.2555 73.3445 65.0776 73.3445 62.3773V16.3331C73.3445 14.3553 71.7445 12.7553 69.7672 12.7553H10.2559C8.27809 12.7553 6.67809 14.3553 6.67809 16.3331V62.3773C6.67809 65.0663 8.85588 67.2555 11.5559 67.2555H28.9559H28.9448Z" stroke="#ED1111" stroke-width="3" stroke-linecap="round" stroke-linejoin="round"/>
<path d="M15.6334 19.9442C15.6334 19.5997 15.3556 19.322 15.0112 19.322C14.6667 19.322 14.389 19.5997 14.389 19.9442C14.389 20.2886 14.6667 20.5664 15.0112 20.5664C15.3556 20.5664 15.6334 20.2886 15.6334 19.9442Z" stroke="#ED1111" stroke-width="3" stroke-linecap="round" stroke-linejoin="round"/>
<path d="M22.7778 19.9442C22.7778 19.5997 22.5 19.322 22.1556 19.322C21.8111 19.322 21.5334 19.5997 21.5334 19.9442C21.5334 20.2886 21.8111 20.5664 22.1556 20.5664C22.5 20.5664 22.7778 20.2886 22.7778 19.9442Z" stroke="#ED1111" stroke-width="3" stroke-linecap="round" stroke-linejoin="round"/>
<path d="M29.9334 19.9442C29.9334 19.5997 29.6556 19.322 29.3112 19.322C28.9667 19.322 28.6889 19.5997 28.6889 19.9442C28.6889 20.2886 28.9667 20.5664 29.3112 20.5664C29.6556 20.5664 29.9334 20.2886 29.9334 19.9442Z" stroke="#ED1111" stroke-width="3" stroke-linecap="round" stroke-linejoin="round"/>
<path d="M6.66669 27.0109H73.3331" stroke="#ED1111" stroke-width="3" stroke-linecap="round" stroke-linejoin="round"/>
<path d="M28.3111 47.0668H51.7" stroke="#ED1111" stroke-width="3" stroke-linecap="round" stroke-linejoin="round"/>
<path d="M40.0001 35.3113V47.0891" stroke="#ED1111" stroke-width="3" stroke-linecap="round" stroke-linejoin="round"/>
<path d="M40.0112 58.6113V47.0668" stroke="#ED1111" stroke-width="3" stroke-linecap="round" stroke-linejoin="round"/>
<path d="M24.6334 47.1C24.6334 38.6112 31.5223 31.7112 40.0112 31.7112C48.5001 31.7112 55.389 38.6334 55.389 47.1223V47.1C55.389 55.5889 48.5001 62.4776 40.0112 62.4776C31.5223 62.4776 24.6334 55.5889 24.6334 47.1Z" stroke="#ED1111" stroke-width="3" stroke-linecap="round" stroke-linejoin="round"/>
<path d="M36.1668 36.3666C34.3446 38.4888 32.5446 41.9443 32.5446 47.2999" stroke="#ED1111" stroke-width="3" stroke-linecap="round" stroke-linejoin="round"/>
<path d="M43.7891 36.3001C45.6335 38.4224 47.4669 41.889 47.4669 47.3001" stroke="#ED1111" stroke-width="3" stroke-linecap="round" stroke-linejoin="round"/>
<path d="M44.489 57.4444C46.0778 55.2889 47.4667 52.0444 47.4667 47.3111" stroke="#ED1111" stroke-width="3" stroke-linecap="round" stroke-linejoin="round"/>
<path d="M35.4335 57.3221C33.889 55.1666 32.5446 51.9555 32.5446 47.3221" stroke="#ED1111" stroke-width="3" stroke-linecap="round" stroke-linejoin="round"/>
<path d="M40.0001 41.1001C35.589 41.1001 33.0557 39.7667 31.689 38.6445" stroke="#ED1111" stroke-width="3" stroke-linecap="round" stroke-linejoin="round"/>
<path d="M48.3112 38.6445C46.9556 39.7778 44.4112 41.1001 40.0112 41.1001" stroke="#ED1111" stroke-width="3" stroke-linecap="round" stroke-linejoin="round"/>
<path d="M48.3112 55.5112C46.9445 54.3778 44.4112 53.0556 40.0112 53.0556" stroke="#ED1111" stroke-width="3" stroke-linecap="round" stroke-linejoin="round"/>
<path d="M31.6112 55.5889C32.9445 54.4445 35.5001 53.0556 40.0112 53.0556" stroke="#ED1111" stroke-width="3" stroke-linecap="round" stroke-linejoin="round"/>
</g>
</g>
<defs>
<clipPath id="clip0_6_277">
<rect width="80" height="80" fill="white"/>
</clipPath>
</defs>
</svg>
